<?xml version="1.0" encoding="UTF-8" standalone="no"?>
<svg
   width="16"
   height="16"
   version="1.1"
   id="svg1"
   sodipodi:docname="icon.svg"
   inkscape:version="1.3.2 (091e20e, 2023-11-25, custom)"
   xmlns:inkscape="http://www.inkscape.org/namespaces/inkscape"
   xmlns:sodipodi="http://sodipodi.sourceforge.net/DTD/sodipodi-0.dtd"
   xmlns="http://www.w3.org/2000/svg"
   xmlns:svg="http://www.w3.org/2000/svg">
  <defs
     id="defs1" />
  <sodipodi:namedview
     id="namedview1"
     pagecolor="#505050"
     bordercolor="#ffffff"
     borderopacity="1"
     inkscape:showpageshadow="0"
     inkscape:pageopacity="0"
     inkscape:pagecheckerboard="1"
     inkscape:deskcolor="#505050"
     inkscape:zoom="40.717089"
     inkscape:cx="6.8767196"
     inkscape:cy="10.22912"
     inkscape:window-width="1920"
     inkscape:window-height="974"
     inkscape:window-x="-11"
     inkscape:window-y="-11"
     inkscape:window-maximized="1"
     inkscape:current-layer="svg1" />
  <path
     id="path1"
     style="stroke:none;fill:#e0e0e0;fill-opacity:1"
     d="M 14.564453 2 L 12.320312 2.328125 L 13.138672 4.2285156 L 14.853516 3.9785156 L 14.564453 2 z M 10.341797 2.6152344 L 8.3632812 2.9042969 L 9.1816406 4.8066406 L 11.160156 4.5175781 L 10.341797 2.6152344 z M 6.3828125 3.1933594 L 4.4042969 3.4824219 L 5.2226562 5.3847656 L 7.2011719 5.0957031 L 6.3828125 3.1933594 z M 2.4257812 3.7714844 L 0.7109375 4.0214844 L 1 6 L 3.2441406 5.671875 L 2.4257812 3.7714844 z M 1 7 L 1 13 A 2 2 0 0 0 3 15 L 15 15 L 15 7 L 1 7 z M 7.4453125 8.1640625 L 8.8359375 8.1640625 L 8.8359375 10.310547 L 10.951172 13.964844 L 5.3183594 13.970703 L 7.4453125 10.275391 L 7.4453125 8.1640625 z " />
</svg>
